<svg width="700" height="125" viewBox="0 0 700 125" fill="none" xmlns="http://www.w3.org/2000/svg">
<g clip-path="url(#clip0_302_11)">
<path d="M199.172 78.2266C199.172 85.1797 197.414 90.7266 193.898 94.8672C190.383 99.0078 186.008 101.859 180.773 103.422C178.898 103.891 176.828 104.203 174.562 104.359C172.375 104.516 170.617 104.594 169.289 104.594H143.273V15.1797H167.883C176.633 15.1797 183.508 17.3281 188.508 21.625C193.586 25.9219 196.125 32.0547 196.125 40.0234C196.125 44.3203 195.148 47.9141 193.195 50.8047C191.242 53.6953 188.742 55.8438 185.695 57.25C189.602 58.8125 192.805 61.1953 195.305 64.3984C197.883 67.6016 199.172 72.2109 199.172 78.2266ZM158.273 91.3516H168C168.781 91.3516 169.953 91.3125 171.516 91.2344C173.078 91.1562 174.211 91 174.914 90.7656C178.039 89.75 180.344 88.1484 181.828 85.9609C183.312 83.7734 184.055 81.1953 184.055 78.2266C184.055 75.1016 183.312 72.4844 181.828 70.375C180.344 68.1875 178.039 66.625 174.914 65.6875C174.211 65.375 173.117 65.1016 171.633 64.8672C170.227 64.6328 168.977 64.5156 167.883 64.5156H158.273V91.3516ZM181.008 40.0234C181.008 36.3516 180.031 33.6562 178.078 31.9375C176.203 30.1406 173.625 29.0859 170.344 28.7734C169.641 28.6953 168.82 28.6562 167.883 28.6562C166.945 28.5781 166.203 28.5391 165.656 28.5391H158.273V51.2734H170.344C173.469 50.8828 176.008 49.7109 177.961 47.7578C179.992 45.8047 181.008 43.2266 181.008 40.0234ZM253.547 104.594H238.664V99.7891C234.758 103.93 228.703 106 220.5 106C218.781 106 216.75 105.57 214.406 104.711C212.141 103.773 210.188 102.562 208.547 101.078C206.828 99.3594 205.5 97.4453 204.562 95.3359C203.625 93.1484 203.156 90.6875 203.156 87.9531C203.156 82.875 204.484 78.5781 207.141 75.0625C209.875 71.5469 213.156 69.0469 216.984 67.5625C219.406 66.625 221.984 65.9219 224.719 65.4531C227.531 64.9844 229.758 64.75 231.398 64.75H238.664V61.7031C238.664 61.1562 238.508 60.2188 238.195 58.8906C237.961 57.4844 237.531 56.2344 236.906 55.1406C236.203 54.0469 235.188 53.1875 233.859 52.5625C232.609 51.8594 231.086 51.5078 229.289 51.5078C227.023 51.5078 225.031 52.1719 223.312 53.5C221.594 54.75 220.734 57.2891 220.734 61.1172H204.68C204.68 56.8984 205.148 53.6562 206.086 51.3906C207.023 49.125 208.547 47.0938 210.656 45.2969C212.609 43.5 215.227 41.9766 218.508 40.7266C221.789 39.4766 225.383 38.8516 229.289 38.8516C237.258 38.8516 243.273 41.0781 247.336 45.5312C251.477 49.9062 253.547 55.1406 253.547 61.2344V104.594ZM238.664 80.8047V76.8203C237.57 76.8203 236.32 76.8594 234.914 76.9375C233.508 76.9375 231.203 77.2109 228 77.7578C225.656 78.1484 223.508 79.0859 221.555 80.5703C219.367 82.2891 218.273 84.3594 218.273 86.7812C218.273 89.2031 218.898 90.9219 220.148 91.9375C221.398 92.875 222.922 93.3438 224.719 93.3438C225.422 93.3438 226.516 93.2266 228 92.9922C229.484 92.6797 230.812 92.1328 231.984 91.3516C234.484 89.6328 236.398 87.5625 237.727 85.1406C238.352 84.0469 238.664 82.6016 238.664 80.8047ZM312.609 64.0469H297.141C297.141 59.8281 296.359 56.7031 294.797 54.6719C293.234 52.5625 290.969 51.5078 288 51.5078C284.641 51.5078 281.633 53.2266 278.977 56.6641C276.398 60.0234 275.109 64.9453 275.109 71.4297C275.109 72.9141 275.266 74.5156 275.578 76.2344C275.891 77.9531 276.32 79.6328 276.867 81.2734C277.492 83.2266 278.43 85.1016 279.68 86.8984C281.008 88.6953 282.688 90.2188 284.719 91.4688C285.422 91.8594 286.477 92.25 287.883 92.6406C289.289 93.0312 291.008 93.2266 293.039 93.2266C294.367 93.2266 296.516 92.9531 299.484 92.4062C302.453 91.7812 306.281 90.1797 310.969 87.6016V100.609C306.672 103.109 302.57 104.75 298.664 105.531C294.758 106.234 290.812 106.391 286.828 106C283.391 105.531 279.953 104.477 276.516 102.836C273.156 101.117 270.422 99.125 268.312 96.8594C265.891 93.9688 263.859 90.375 262.219 86.0781C260.578 81.7812 259.758 76.8594 259.758 71.3125C259.758 66.625 260.344 62.3672 261.516 58.5391C262.766 54.6328 264.562 51.2734 266.906 48.4609C269.172 45.5703 272.141 43.2656 275.812 41.5469C279.484 39.75 283.664 38.8516 288.352 38.8516C291.789 38.8516 294.953 39.4375 297.844 40.6094C300.734 41.7031 303.234 43.1875 305.344 45.0625C307.531 46.9375 309.289 49.2812 310.617 52.0938C311.945 54.8281 312.609 58.8125 312.609 64.0469ZM372.961 104.594H354.562L334.172 80.9219V104.594H319.406V15.1797H334.172V59.9453L353.625 40.2578H372.609L342.961 69.4375L372.961 104.594ZM432.727 28.7734H409.289V104.594H394.172V28.7734H370.734V15.1797H432.727V28.7734ZM441.398 65.3359H463.781C463.781 61.6641 463.117 58.5391 461.789 55.9609C461.008 54.6328 459.914 53.5781 458.508 52.7969C457.18 51.9375 455.695 51.5078 454.055 51.5078C450.695 51.5078 447.688 53.1875 445.031 56.5469C443.234 58.8125 442.023 61.7422 441.398 65.3359ZM441.75 77.9922C441.984 79.0859 442.297 80.2188 442.688 81.3906C443.312 83.1875 444.289 84.9844 445.617 86.7812C447.023 88.5781 448.742 90.1406 450.773 91.4688C451.477 91.8594 452.531 92.25 453.938 92.6406C455.344 93.0312 457.062 93.2266 459.094 93.2266C461.438 93.2266 464.094 92.8359 467.062 92.0547C470.031 91.1953 473.352 89.6719 477.023 87.4844V100.609C472.727 103.109 468.625 104.75 464.719 105.531C460.812 106.234 456.867 106.391 452.883 106C449.445 105.531 446.008 104.477 442.57 102.836C439.211 101.117 436.477 99.125 434.367 96.8594C431.945 93.9688 429.914 90.375 428.273 86.0781C426.633 81.7812 425.812 76.8594 425.812 71.3125C425.812 66.625 426.398 62.3672 427.57 58.5391C428.82 54.6328 430.617 51.2734 432.961 48.4609C435.227 45.6484 438.117 43.3438 441.633 41.5469C445.227 39.75 449.406 38.8516 454.172 38.8516C458.156 38.8516 461.867 39.7109 465.305 41.4297C468.742 43.1484 471.438 45.3359 473.391 47.9922C476.906 52.6016 478.664 60.2188 478.664 70.8438V77.9922H441.75ZM527.062 86.6641C527.062 89.4766 526.555 92.0938 525.539 94.5156C524.602 96.9375 523.156 98.9688 521.203 100.609C519.094 102.328 516.242 103.656 512.648 104.594C509.133 105.531 505.344 106 501.281 106C496.594 106 490.227 104.75 482.18 102.25V86.7812C485.852 88.9688 489.406 90.6094 492.844 91.7031C496.359 92.7188 499.172 93.2266 501.281 93.2266C504.875 93.2266 507.453 92.875 509.016 92.1719C511.125 90.8438 512.18 89.2031 512.18 87.25C512.18 85.8438 511.789 84.6719 511.008 83.7344C510.305 82.7188 509.172 81.7812 507.609 80.9219C506.125 80.0625 503.938 79.0859 501.047 77.9922C498.234 76.8203 495.422 75.5312 492.609 74.125C490.188 72.875 487.883 70.9219 485.695 68.2656C483.508 65.6094 482.414 62.1328 482.414 57.8359C482.414 51.8203 484.523 47.1719 488.742 43.8906C493.039 40.5313 498.508 38.8516 505.148 38.8516C510.773 38.8516 516.984 40.0234 523.781 42.3672V57.0156C519.562 54.8281 516.047 53.3438 513.234 52.5625C510.422 51.7812 507.648 51.3906 504.914 51.3906C502.57 51.3906 500.656 51.8594 499.172 52.7969C497.766 53.7344 497.062 55.1016 497.062 56.8984C497.062 58.0703 497.297 59.0469 497.766 59.8281C498.312 60.6094 499.172 61.4297 500.344 62.2891C501.672 63.0703 503.977 64.125 507.258 65.4531C510.539 66.7812 513.469 68.0703 516.047 69.3203C518.938 70.8828 521.477 73.0703 523.664 75.8828C525.93 78.6172 527.062 82.2109 527.062 86.6641ZM566.438 52.9141H551.906V82.6797C551.906 84.3984 551.906 85.9609 551.906 87.3672C551.906 88.6953 552.18 89.9844 552.727 91.2344C553.039 92.0156 553.508 92.5625 554.133 92.875C554.836 93.1094 555.969 93.2266 557.531 93.2266C559.328 93.3047 562.219 92.9531 566.203 92.1719V105.062C562.219 105.688 558.547 106 555.188 106C549.172 106 544.641 104.516 541.594 101.547C538.547 98.5781 537.023 94.6328 537.023 89.7109V52.9141H528.703V40.2578H537.023V27.8359L551.906 19.9844V40.2578H566.438V52.9141ZM588.586 32.2891H571.828V15.1797H588.586V32.2891ZM587.883 104.594H572.766V40.2578H587.883V104.594ZM636.984 28.6562C633.859 27.7188 631.438 27.0937 629.719 26.7812C628 26.4688 626.32 26.3125 624.68 26.3125C623.195 26.3125 622.023 26.5078 621.164 26.8984C620.305 27.2891 619.602 28.0312 619.055 29.125C618.586 30.1406 618.273 31.2734 618.117 32.5234C617.961 33.6953 617.883 35.0234 617.883 36.5078V40.2578H633V52.9141H617.883V104.594H602.766V52.9141H593.742V40.2578H602.766V38.0312C602.766 36.0781 602.883 33.6953 603.117 30.8828C603.43 27.9922 604.367 25.2187 605.93 22.5625C607.336 20.1406 609.484 18.0703 612.375 16.3516C615.266 14.5547 619.172 13.6562 624.094 13.6562C625.812 13.6562 627.648 13.8125 629.602 14.125C631.633 14.3594 634.094 14.7891 636.984 15.4141V28.6562ZM675.422 40.2578H690.539L662.766 122.875H647.766L655.734 98.8516L633.703 40.375L649.289 40.2578L662.883 77.9922L675.422 40.2578Z" fill="#729B79"/>
<path d="M124 111.111C124 118.781 117.781 125 110.111 125H12.8889C5.21875 125 -1 118.781 -1 111.111V13.8889C-1 6.21875 5.21875 -3.8147e-06 12.8889 -3.8147e-06H110.111C117.781 -3.8147e-06 124 6.21875 124 13.8889V111.111Z" fill="#729B79"/>
<path d="M76.2285 77.2292L86.0514 87.0521C72.4924 100.611 50.5063 100.608 36.9472 87.0487C29.1452 79.2501 25.857 68.6598 27.034 58.4896L13.0167 59.7639C12.2702 73.1007 16.9333 86.6841 27.1243 96.8716C46.107 115.854 76.8882 115.858 95.8709 96.8716L105.69 106.691L108.638 74.2813L76.2285 77.2292Z" fill="white"/>
<path d="M95.8742 28.125C76.8881 9.14238 46.1138 9.14238 27.1277 28.125L17.3083 18.3056L14.3604 50.7153L46.7701 47.7674L36.9472 37.9479C50.5096 24.3854 72.4923 24.3854 86.0513 37.9479C93.8569 45.75 97.1416 56.3403 95.9645 66.507L109.978 65.2361C110.728 51.8993 106.065 38.316 95.8742 28.125Z" fill="white"/>
</g>
<defs>
<clipPath id="clip0_302_11">
<rect width="700" height="125" fill="white"/>
</clipPath>
</defs>
</svg>
