<svg width="512" height="512" viewBox="0 0 512 512" fill="none" xmlns="http://www.w3.org/2000/svg">
<path d="M512 455.111C512 486.528 486.528 512 455.111 512H56.8889C25.472 512 0 486.528 0 455.111V56.8889C0 25.472 25.472 -3.8147e-06 56.8889 -3.8147e-06H455.111C486.528 -3.8147e-06 512 25.472 512 56.8889V455.111Z" fill="#729B79"/>
<path d="M316.331 316.331L356.565 356.565C301.027 412.103 210.972 412.089 155.435 356.551C123.477 324.608 110.009 281.23 114.83 239.573L57.4149 244.793C54.3572 299.42 73.4576 355.058 115.2 396.786C192.953 474.539 319.033 474.553 396.786 396.786L437.006 437.006L449.081 304.256L316.331 316.331Z" fill="white"/>
<path d="M396.8 115.2C319.033 37.4472 192.981 37.4472 115.214 115.2L74.9936 74.9796L62.9189 207.73L195.669 195.655L155.434 155.435C210.986 99.8827 301.027 99.8827 356.565 155.435C388.537 187.392 401.991 230.77 397.17 272.412L454.571 267.207C457.643 212.58 438.542 156.942 396.8 115.2Z" fill="white"/>
</svg>
