<svg width="2000" height="3000" viewBox="0 0 2000 3000" fill="none" xmlns="http://www.w3.org/2000/svg">
<g clip-path="url(#clip0_410_2)">
<path d="M2000 0H0V3000H2000V0Z" fill="#729B79"/>
<path d="M2317.5 3300L1827.5 2763.75L1300 2475L772.5 2017.5L100 2246.25L737.5 2865L316.25 3298.12L100 2246.25L-492.5 1848.75L255 1432.5L-77.5 858.75L316.25 298.125L-172.5 -236.25M1922.5 858.75L2592.5 978.375L1922.5 858.75Z" stroke="#9BD2A4" stroke-width="0.5"/>
<path d="M925 3393.75L737.5 2865M-77.5 858.75L592.5 978.75L975 1432.5L1507.5 1848.75L771.25 2015.62L253.75 1430.62L-77.5 858.75Z" stroke="#9BD2A4" stroke-width="0.5"/>
<path d="M1300 2475L1445 3157.5L1827.5 2763.75L2100 2246.25L1507.5 1848.75L1300 2475ZM1300 2475L737.5 2865L772.5 2017.5L975 1432.5L1347.5 1008.75L1922.5 858.75L1443.75 155.625L925 393.75L737.5 -135L316.25 298.125L592.5 978.75L255 1432.5L100 2246.25L-172.5 2763.75L317.5 3300" stroke="#9BD2A4" stroke-width="0.5"/>
<path d="M975 1432.5H255M1300 -525L1446.25 159.375L1827.5 -236.25L1300 -525ZM1507.5 1848.75L1347.5 1008.75L592.5 978.75L925 393.75L1507.5 1848.75ZM2255 1432.5L1347.5 1008.75L2255 1432.5Z" stroke="#9BD2A4" stroke-width="0.5"/>
<path d="M255 1432.5L-652.5 1008.75M-555 157.5L316.25 298.125L925 393.75L1347.5 1008.75L1443.75 155.625L2317.5 300L1922.5 858.75L2255 1432.5L1507.5 1848.75L1827.5 2763.75L-555 157.5ZM737.5 -135L1443.75 155.625L737.5 -135ZM1445 3157.5L737.5 2865L1445 3157.5ZM100 -753.75L317.5 300L100 -753.75Z" stroke="#9BD2A4" stroke-width="0.5"/>
<path d="M1922.5 877.5C1929.4 877.5 1935 869.105 1935 858.75C1935 848.395 1929.4 840 1922.5 840C1915.6 840 1910 848.395 1910 858.75C1910 869.105 1915.6 877.5 1922.5 877.5Z" fill="#ACE9B6"/>
<path d="M1347.5 1027.5C1354.4 1027.5 1360 1019.11 1360 1008.75C1360 998.395 1354.4 990 1347.5 990C1340.6 990 1335 998.395 1335 1008.75C1335 1019.11 1340.6 1027.5 1347.5 1027.5Z" fill="#ACE9B6"/>
<path d="M1507.5 1867.5C1514.4 1867.5 1520 1859.11 1520 1848.75C1520 1838.39 1514.4 1830 1507.5 1830C1500.6 1830 1495 1838.39 1495 1848.75C1495 1859.11 1500.6 1867.5 1507.5 1867.5Z" fill="#ACE9B6"/>
<path d="M1827.5 2782.5C1834.4 2782.5 1840 2774.11 1840 2763.75C1840 2753.39 1834.4 2745 1827.5 2745C1820.6 2745 1815 2753.39 1815 2763.75C1815 2774.11 1820.6 2782.5 1827.5 2782.5Z" fill="#ACE9B6"/>
<path d="M1300 2493.75C1306.9 2493.75 1312.5 2485.36 1312.5 2475C1312.5 2464.64 1306.9 2456.25 1300 2456.25C1293.1 2456.25 1287.5 2464.64 1287.5 2475C1287.5 2485.36 1293.1 2493.75 1300 2493.75Z" fill="#ACE9B6"/>
<path d="M772.5 2036.25C779.404 2036.25 785 2027.86 785 2017.5C785 2007.14 779.404 1998.75 772.5 1998.75C765.596 1998.75 760 2007.14 760 2017.5C760 2027.86 765.596 2036.25 772.5 2036.25Z" fill="#ACE9B6"/>
<path d="M737.5 2883.75C744.404 2883.75 750 2875.36 750 2865C750 2854.64 744.404 2846.25 737.5 2846.25C730.596 2846.25 725 2854.64 725 2865C725 2875.36 730.596 2883.75 737.5 2883.75Z" fill="#ACE9B6"/>
<path d="M100 2265C106.904 2265 112.5 2256.61 112.5 2246.25C112.5 2235.89 106.904 2227.5 100 2227.5C93.0964 2227.5 87.5 2235.89 87.5 2246.25C87.5 2256.61 93.0964 2265 100 2265Z" fill="#ACE9B6"/>
<path d="M255 1451.25C261.904 1451.25 267.5 1442.86 267.5 1432.5C267.5 1422.14 261.904 1413.75 255 1413.75C248.096 1413.75 242.5 1422.14 242.5 1432.5C242.5 1442.86 248.096 1451.25 255 1451.25Z" fill="#ACE9B6"/>
<path d="M317.5 318.75C324.404 318.75 330 310.355 330 300C330 289.645 324.404 281.25 317.5 281.25C310.596 281.25 305 289.645 305 300C305 310.355 310.596 318.75 317.5 318.75Z" fill="#ACE9B6"/>
<path d="M925 412.5C931.904 412.5 937.5 404.105 937.5 393.75C937.5 383.395 931.904 375 925 375C918.096 375 912.5 383.395 912.5 393.75C912.5 404.105 918.096 412.5 925 412.5Z" fill="#ACE9B6"/>
<path d="M1445 176.25C1451.9 176.25 1457.5 167.855 1457.5 157.5C1457.5 147.145 1451.9 138.75 1445 138.75C1438.1 138.75 1432.5 147.145 1432.5 157.5C1432.5 167.855 1438.1 176.25 1445 176.25Z" fill="#ACE9B6"/>
<path d="M592.5 997.5C599.404 997.5 605 989.105 605 978.75C605 968.395 599.404 960 592.5 960C585.596 960 580 968.395 580 978.75C580 989.105 585.596 997.5 592.5 997.5Z" fill="#ACE9B6"/>
<path d="M975 1451.25C981.904 1451.25 987.5 1442.86 987.5 1432.5C987.5 1422.14 981.904 1413.75 975 1413.75C968.096 1413.75 962.5 1422.14 962.5 1432.5C962.5 1442.86 968.096 1451.25 975 1451.25Z" fill="#ACE9B6"/>
</g>
<defs>
<clipPath id="clip0_410_2">
<rect width="2000" height="3000" fill="white"/>
</clipPath>
</defs>
</svg>
